# AST/ASF file generated using VICON BodyLanguage
# -----------------------------------------------
:version 1.10
:name VICON
:units
  mass 1.0
  length 0.45
  angle deg
:documentation
   .ast/.asf automatically generated from VICON data using
   VICON BodyBuilder and BodyLanguage model FoxedUp or BRILLIANT.MOD
:root
   order TX TY TZ RX RY RZ
   axis XYZ
   position 0 0 0  
   orientation 0 0 0 
:bonedata
  begin
     id 1 
     name lhipjoint
     direction 0.627457 -0.725269 0.283342 
     length 2.53237 
     axis 0 0 0  XYZ
  end
  begin
     id 2 
     name lfemur
     direction 0.34202 -0.939693 0  
     length 7.32496  
     axis 0 0 20  XYZ
    dof rx ry rz
    limits (-160.0 20.0)
           (-70.0 70.0)
           (-60.0 70.0)
  end
  begin
     id 3 
     name ltibia
     direction 0.34202 -0.939693 0   
     length 7.69674   
     axis 0 0 20   XYZ
    dof rx
    limits (-10.0 170.0)
  end
  begin
     id 4 
     name lfoot
     direction 0.127289 -0.349722 0.928166   
     length 1.8612   
     axis -90 7.62852e-016 20   XYZ
    dof rx rz
    limits (-45.0 90.0)
           (-70.0 20.0)
  end
  begin
     id 5 
     name ltoes
     direction 1.53561e-011 -4.21864e-011 1   
     length 0.925608   
     axis -90 7.62852e-016 20   XYZ
    dof rx
    limits (-90.0 20.0)
  end
  begin
     id 6 
     name rhipjoint
     direction -0.609094 -0.738725 0.288599   
     length 2.48624  
     axis 0 0 0  XYZ 
  end
  begin
     id 7 
     name rfemur
     direction -0.34202 -0.939693 0   
     length 7.44259   
     axis 0 0 -20   XYZ
    dof rx ry rz
    limits (-160.0 20.0)
           (-70.0 70.0)
           (-70.0 60.0)
  end
  begin
     id 8 
     name rtibia
     direction -0.34202 -0.939693 0   
     length 7.7781   
     axis 0 0 -20   XYZ
    dof rx
    limits (-10.0 170.0)
 end
 begin
     id 9 
     name rfoot
     direction -0.107015 -0.294021 0.949789   
     length 2.14741  
     axis -90 -7.62852e-016 -20   XYZ
    dof rx rz
    limits (-45.0 90.0)
           (-20.0 70.0)
  end
  begin
     id 10 
     name rtoes
     direction -1.53497e-011 -4.21924e-011 1   
     length 1.0706   
     axis -90 -7.62852e-016 -20   XYZ
    dof rx
    limits (-90.0 20.0)
  end
  begin
     id 11 
     name lowerback
     direction -0.0142066 0.998112 -0.0597545   
     length 1.86627   
     axis 0 0 0   XYZ
    dof rx ry rz
    limits (-20.0 45.0)
           (-30.0 30.0)
           (-30.0 30.0)
  end
  begin
     id 12 
     name upperback
     direction 0.00547294 0.999744 0.0219437   
     length 1.86272   
     axis 0 0 0   XYZ
    dof rx ry rz
    limits (-20.0 45.0)
           (-30.0 30.0)
           (-30.0 30.0)
  end
  begin
     id 13 
     name thorax
     direction 0.0116162 0.998704 0.0495538   
     length 1.8703   
     axis 0 0 0   XYZ
    dof rx ry rz
    limits (-20.0 45.0)
           (-30.0 30.0)
           (-30.0 30.0)
  end
  begin
     id 14 
     name lowerneck
     direction -0.0106574 0.998739 0.0490586   
     length 1.8074   
     axis 0 0 0   XYZ
    dof rx ry rz
    limits (-20.0 45.0)
           (-30.0 30.0)
           (-30.0 30.0)
  end
  begin
     id 15 
     name upperneck
     direction 0.030527 0.976587 -0.212944   
     length 1.80681   
     axis 0 0 0   XYZ
    dof rx ry rz
    limits (-20.0 45.0)
           (-30.0 30.0)
           (-30.0 30.0)
  end
  begin
     id 16
     name head
     direction 0.00869225 0.997035 -0.0764531  
     length 1.8313  
     axis 0 0 0   XYZ
    dof rx ry rz
    limits (-20.0 45.0)
           (-30.0 30.0)
           (-30.0 30.0)
  end
  begin
     id 17 
     name lclavicle
     direction 0.915958 0.399447 0.0382386  
     length 3.78965  
     axis 0 0 0   XYZ
    dof ry rz
    limits (-20.0 10.0)
           (0.0 20.0)
  end
  begin
     id 18 
     name lhumerus
     direction 1 -4.48967e-011 3.19303e-027   
     length 4.78095   
     axis -180 -30 -90   XYZ
    dof rx ry rz
    limits (-60.0 90.0)
           (-90.0 90.0)
           (-90.0 90.0)
  end
  begin
     id 19
     name lradius
     direction 1 -4.48967e-011 -3.77974e-027   
     length 3.58615   
     axis -180 -30 -90   XYZ
    dof rx
    limits (-10.0 170.0)
  end
  begin
     id 20
     name lwrist
     direction 1 -4.48927e-011 1.2807e-027   
     length 1.79307   
     axis 1.91374e-015 90 90   XYZ
    dof ry
    limits (-180.0 0.0)
 end
  begin
     id 21 
     name lhand
     direction 1 -4.49036e-011 2.5614e-027   
     length 0.659812   
     axis -1.63439e-015 90 90   XYZ
    dof rx rz
    limits (-90.0 90.0)
           (-45.0 45.0)
  end
  begin
     id 22 
     name lfingers
     direction 1 -4.49052e-011 5.1228e-027   
     length 0.531957   
     axis -3.26879e-015 90 90   XYZ
    dof rx
    limits (0.0 90.0)
  end
  begin
     id 23
     name lthumb
     direction 0.707107 -6.35012e-011 0.707107   
     length 0.763787   
     axis -90 45 2.85299e-015   XYZ
    dof rx rz
    limits (-45.0 45.0)
           (-45.0 45.0)
  end
  begin
     id 24 
     name rclavicle
     direction -0.895351 0.435135 0.0948887   
     length 3.70497  
     axis 0 0 0   XYZ 
    dof ry rz
    limits (-10.0 20.0)
           (-20.0 0.0)
  end
  begin
     id 25 
     name rhumerus
     direction -1 -4.48971e-011 2.38946e-027  
     length 4.48913   
     axis -180 30 90   XYZ
    dof rx ry rz
    limits (-90.0 60.0)
           (-90.0 90.0)
           (-90.0 90.0)
  end
  begin
     id 26 
     name rradius
     direction -1 -4.4895e-011 4.38668e-027   
     length 3.7051   
     axis -180 30 90   XYZ
    dof rx
    limits (-10.0 170.0)
  end
  begin
     id 27 
     name rwrist
     direction -1 -4.49007e-011 1.2807e-027   
     length 1.85255   
     axis 1.91374e-015 -90 -90   XYZ
    dof ry
    limits (-180.0 0.0)
  end
  begin
     id 28
     name rhand
     direction -1 -4.48851e-011 2.5614e-027   
     length 0.449136   
     axis -1.63439e-015 -90 -90   XYZ
    dof rx rz
    limits (-90.0 90.0)
           (-45.0 45.0)
  end
  begin
     id 29
     name rfingers
     direction -1 -4.49128e-011 5.1228e-027   
     length 0.362105   
     axis -3.26879e-015 -90 -90   XYZ
    dof rx
    limits (0.0 90.0)
  end
  begin
     id 30
     name rthumb
     direction -0.707107 -6.34851e-011 0.707107   
     length 0.519912   
     axis -90 -45 -2.85299e-015   XYZ
    dof rx rz
    limits (-45.0 45.0)
           (-45.0 45.0)
  end
:hierarchy
  begin
    root lhipjoint rhipjoint lowerback
    lhipjoint lfemur
    lfemur ltibia
    ltibia lfoot
    lfoot ltoes
    rhipjoint rfemur
    rfemur rtibia
    rtibia rfoot
    rfoot rtoes
    lowerback upperback
    upperback thorax
    thorax lowerneck lclavicle rclavicle
    lowerneck upperneck
    upperneck head
    lclavicle lhumerus
    lhumerus lradius
    lradius lwrist
    lwrist lhand lthumb
    lhand lfingers
    rclavicle rhumerus
    rhumerus rradius
    rradius rwrist
    rwrist rhand rthumb
    rhand rfingers
  end

#!OML:ASF I:\Actors\actors\Patient Classification 2\Patient 1\Session 1\actor1.ASF
:FULLY-SPECIFIED
:DEGREES
59
root -1.07681 18.1686 5.45009 -0.286109 -3.654 -5.62456
lowerback 4.2455 0.565451 2.55939
upperback -1.06437 0.966372 2.08839
thorax -3.47331 0.449373 0.647372
lowerneck -8.53587 -1.23188 -2.43468
upperneck 15.1483 -1.90249 3.62988
head 6.0471 -0.788135 1.40338
rclavicle 4.62796e-016 1.1281e-014
rhumerus -45.1398 -3.20471 -86.0118
rradius 40.4541
rwrist 21.2051
rhand -6.15949 -27.9397
rfingers 7.12502
rthumb 19.679 -56.9636
lclavicle 4.62796e-016 1.1281e-014
lhumerus -41.1583 7.72745 88.4193
lradius 36.5003
lwrist -12.0964
lhand -0.998989 -25.1427
lfingers 7.12502
lthumb 24.6332 3.29212
rfemur 0 0 0
rtibia 0
rfoot 0 0
rtoes 0
lfemur 18.0242 -8.14665 -11.3854
ltibia -19.4746
lfoot -3.86052 24.6066
ltoes -8.74255
60
root -1.07441 18.1686 5.4609 -0.358669 -3.48852 -5.64277
lowerback 4.23538 0.497771 2.57663
upperback -0.99188 0.874319 2.09313
thorax -3.39308 0.404263 0.649395
lowerneck -8.61891 -1.22767 -2.4731
upperneck 15.2716 -1.90829 3.72324
head 6.10172 -0.784496 1.43899
rclavicle 2.14936e-015 -4.47266e-016
rhumerus -44.9865 -3.32816 -85.8866
rradius 40.5146
rwrist 21.1409
rhand -6.14753 -27.7385
rfingers 7.12502
rthumb 19.6905 -56.7613
lclavicle 2.14936e-015 -4.47266e-016
lhumerus -41.1187 7.56792 88.4426
lradius 36.4636
lwrist -12.0415
lhand -0.992206 -25.1399
lfingers 7.12502
lthumb 24.6397 3.294
rfemur 0 0 0
rtibia 0
rfoot 0 0
rtoes 0
lfemur 18.0621 -8.25228 -11.3908
ltibia -19.4083
lfoot -3.9056 24.5379
ltoes -8.8301
61
root -1.07116 18.1693 5.47296 -0.402087 -3.26721 -5.66922
lowerback 4.19464 0.404447 2.60933
upperback -0.948037 0.749407 2.1241
thorax -3.32572 0.342532 0.672151
lowerneck -8.63917 -1.19915 -2.60945
upperneck 15.374 -1.87588 3.87281
head 6.13887 -0.764357 1.51198
rclavicle 1.40683e-014 -6.26172e-015
rhumerus -44.8896 -3.28045 -85.7857
rradius 40.6026
rwrist 20.9681
rhand -6.09992 -27.84
rfingers 7.12502
rthumb 19.7363 -56.858
lclavicle 1.40683e-014 -6.26172e-015
lhumerus -41.0893 7.48245 88.4928
lradius 36.4012
lwrist -12.1325
lhand -1.02096 -25.1237
lfingers 7.12502
lthumb 24.6121 3.3139
rfemur 0 0 0
rtibia 0
rfoot 0 0
rtoes 0
lfemur 18.0778 -8.3069 -11.372
ltibia -19.4034
lfoot -3.85865 24.3931
ltoes -9.04719
62
root -1.06779 18.1701 5.48428 -0.41001 -3.03114 -5.70619
lowerback 4.13879 0.308848 2.65445
upperback -0.938752 0.622868 2.16373
thorax -3.28558 0.279449 0.696855
lowerneck -8.62911 -1.16537 -2.80215
upperneck 15.4958 -1.83918 4.08387
head 6.17763 -0.740903 1.61456
rclavicle -4.98981e-015 -3.37934e-015
rhumerus -44.8896 -3.19974 -85.6874
rradius 40.7434
rwrist 20.7937
rhand -6.08642 -28.0307
rfingers 7.12502
rthumb 19.7493 -57.0475
lclavicle -4.98981e-015 -3.37934e-015
lhumerus -41.0607 7.40306 88.5513
lradius 36.2848
lwrist -12.3769
lhand -1.21507 -25.1757
lfingers 7.12502
lthumb 24.426 3.2872
rfemur 0 0 0
rtibia 0
rfoot 0 0
rtoes 0
lfemur 18.0564 -8.23812 -11.3146
ltibia -19.4281
lfoot -3.70661 24.1218
ltoes -9.35564
63
root -1.06411 18.1693 5.49579 -0.418763 -2.81093 -5.74801
lowerback 4.07577 0.233668 2.71509
upperback -0.934962 0.523862 2.19336
thorax -3.24667 0.229637 0.700496
lowerneck -8.61843 -1.1489 -2.91158
upperneck 15.6083 -1.82107 4.188
head 6.21235 -0.729944 1.66793
rclavicle 1.3748e-015 1.08213e-014
rhumerus -44.9018 -3.24023 -85.5513
rradius 40.8663
rwrist 20.6775
rhand -5.22914 -28.4734
rfingers 7.12502
rthumb 20.5732 -57.4032
lclavicle 1.3748e-015 1.08213e-014
lhumerus -40.9955 7.38182 88.5602
lradius 36.1388
lwrist -12.6369
lhand -1.26626 -25.2071
lfingers 7.12502
lthumb 24.377 3.26238
rfemur 0 0 0
rtibia 0
rfoot 0 0
rtoes 0
lfemur 18.0461 -8.1527 -11.2502
ltibia -19.4497
lfoot -3.58857 23.8376
ltoes -9.62132
64
root -1.05911 18.1685 5.50853 -0.433706 -2.65245 -5.73114
lowerback 4.01864 0.192148 2.74756
upperback -0.943047 0.467989 2.19474
thorax -3.22303 0.201385 0.687715
lowerneck -8.58787 -1.14585 -2.8392
upperneck 15.6911 -1.80696 4.04205
head 6.23095 -0.730068 1.61104
rclavicle 8.56211e-015 1.74185e-014
rhumerus -44.9136 -3.34269 -85.3918
rradius 40.9083
rwrist 20.6154
rhand -4.99673 -28.967
rfingers 7.12502
rthumb 20.7966 -57.8725
lclavicle 8.56211e-015 1.74185e-014
lhumerus -40.9165 7.4436 88.5159
lradius 35.9943
lwrist -12.8734
lhand -1.17275 -25.237
lfingers 7.12502
lthumb 24.4666 3.22042
rfemur 0 0 0
rtibia 0
rfoot 0 0
rtoes 0
lfemur 18.0581 -8.07347 -11.2682
ltibia -19.4618
lfoot -3.51068 23.6187
ltoes -9.8067
65
root -1.05393 18.1689 5.52095 -0.393857 -2.57542 -5.70278
lowerback 3.94599 0.191844 2.7752
upperback -0.984595 0.466819 2.18091
thorax -3.2247 0.199926 0.65834
lowerneck -8.54344 -1.1561 -2.70397
upperneck 15.7946 -1.82227 3.902
head 6.25429 -0.740342 1.54338
rclavicle -2.37115e-015 -2.9445e-015
rhumerus -44.9438 -3.46043 -85.2376
rradius 40.8843
rwrist 20.5984
rhand -6.55052 -28.7844
rfingers 7.12502
rthumb 19.3031 -57.8463
lclavicle -2.37115e-015 -2.9445e-015
lhumerus -40.8827 7.40713 88.4906
lradius 35.9525
lwrist -12.9561
lhand -1.1246 -25.3084
lfingers 7.12502
lthumb 24.5128 3.14274
rfemur 0 0 0
rtibia 0
rfoot 0 0
rtoes 0
lfemur 18.0306 -8.06588 -11.3126
ltibia -19.4622
lfoot -3.50702 23.5448
ltoes -9.83813
66
root -1.04975 18.1685 5.53293 -0.340136 -2.54378 -5.6621
lowerback 3.88594 0.226356 2.77891
upperback -1.05392 0.51181 2.14843
thorax -3.26174 0.221265 0.62009
lowerneck -8.43243 -1.18881 -2.65122
upperneck 15.8932 -1.89138 3.96907
head 6.26868 -0.766127 1.55133
rclavicle -1.65822e-015 -5.40446e-015
rhumerus -45.0556 -3.62872 -85.0798
rradius 40.8556
rwrist 20.6417
rhand -6.81763 -28.358
rfingers 7.12502
rthumb 19.0462 -57.4455
lclavicle -1.65822e-015 -5.40446e-015
lhumerus -40.8943 7.26621 88.4876
lradius 35.9933
lwrist -12.922
lhand -1.07 -25.3317
lfingers 7.12502
lthumb 24.5651 3.11238
rfemur 0 0 0
rtibia 0
rfoot 0 0
rtoes 0
lfemur 17.9975 -8.06837 -11.3734
ltibia -19.4462
lfoot -3.52637 23.5018
ltoes -9.93098
67
root -1.04546 18.1668 5.54474 -0.318479 -2.57135 -5.58901
lowerback 3.86847 0.280055 2.73418
upperback -1.12314 0.582159 2.12759
thorax -3.32292 0.256098 0.61912
lowerneck -8.2962 -1.20979 -2.68242
upperneck 15.9672 -1.93705 4.06919
head 6.27108 -0.783359 1.58565
rclavicle -9.99437e-015 4.9075e-015
rhumerus -45.2291 -3.74953 -84.8956
rradius 40.8541
rwrist 20.741
rhand -6.04857 -28.3235
rfingers 7.12502
rthumb 19.7857 -57.3365
lclavicle -9.99437e-015 4.9075e-015
lhumerus -40.9178 7.20895 88.491
lradius 36.0936
lwrist -12.792
lhand -0.816512 -25.1833
lfingers 7.12502
lthumb 24.8081 3.22754
rfemur 0 0 0
rtibia 0
rfoot 0 0
rtoes 0
lfemur 18.0123 -7.96954 -11.4729
ltibia -19.4251
lfoot -3.50548 23.4194
ltoes -10.1926
68
root -1.04164 18.166 5.55452 -0.286864 -2.63799 -5.5806
lowerback 3.83475 0.322635 2.72851
upperback -1.14956 0.638809 2.14964
thorax -3.33105 0.284449 0.641443
lowerneck -8.26451 -1.19937 -2.71578
upperneck 16.007 -1.92425 4.09674
head 6.27822 -0.777081 1.6013
rclavicle -4.20675e-015 4.84848e-015
rhumerus -45.275 -3.81621 -84.7103
rradius 40.7426
rwrist 20.9045
rhand -6.10729 -28.3427
rfingers 7.12502
rthumb 19.7292 -57.3615
lclavicle -4.20675e-015 4.84848e-015
lhumerus -40.8819 7.27784 88.4792
lradius 36.2831
lwrist -12.4571
lhand -0.392783 -24.8832
lfingers 7.12502
lthumb 25.2141 3.47111
rfemur 0 0 0
rtibia 0
rfoot 0 0
rtoes 0
lfemur 18.0225 -7.92982 -11.5033
ltibia -19.3966
lfoot -3.56238 23.4404
ltoes -10.183
69
root -1.03933 18.1662 5.56205 -0.246903 -2.6859 -5.60294
lowerback 3.80397 0.352302 2.74696
upperback -1.15878 0.678898 2.16899
thorax -3.32295 0.304257 0.648597
lowerneck -8.29599 -1.19178 -2.73536
upperneck 16.0223 -1.91601 4.12804
head 6.28867 -0.771325 1.61517
rclavicle -5.47531e-016 1.06148e-014
rhumerus -45.2082 -3.94753 -84.5392
rradius 40.4688
rwrist 21.103
rhand -6.308 -28.2362
rfingers 7.12502
rthumb 19.5363 -57.2746
lclavicle -5.47531e-016 1.06148e-014
lhumerus -40.8445 7.32922 88.4575
lradius 36.4757
lwrist -12.1471
lhand -0.359118 -24.6946
lfingers 7.12502
lthumb 25.2464 3.65514
rfemur 0 0 0
rtibia 0
rfoot 0 0
rtoes 0
lfemur 18.0035 -7.96415 -11.4906
ltibia -19.3569
lfoot -3.67188 23.5071
ltoes -9.94168
